<?xml version="1.0" encoding="iso-8859-1"?>
<!-- Generator: Adobe Illustrator 17.1.0, SVG Export Plug-In . SVG Version: 6.00 Build 0)  -->
<!DOCTYPE svg PUBLIC "-//W3C//DTD SVG 1.1//EN" "http://www.w3.org/Graphics/SVG/1.1/DTD/svg11.dtd">
<svg version="1.1" id="Capa_1" xmlns="http://www.w3.org/2000/svg" xmlns:xlink="http://www.w3.org/1999/xlink" x="0px" y="0px"
	 viewBox="0 0 390.885 390.885" style="enable-background:new 0 0 390.885 390.885;" xml:space="preserve">
<path d="M274.759,104.84c0-4.971,4.029-9,9-9h10.002c4.971,0,9,4.029,9,9s-4.029,9-9,9h-10.002
	C278.788,113.84,274.759,109.81,274.759,104.84z M258.463,104.84c0-4.971-4.029-9-9-9h-10.001c-4.971,0-9,4.029-9,9s4.029,9,9,9
	h10.001C254.434,113.84,258.463,109.81,258.463,104.84z M235.072,47.666c9.396-5.746,20.221-8.783,31.301-8.783
	c1.609,0,3.204,0.063,4.782,0.188c-8.341,12.947-20.466,22.306-34.117,26.124c-4.786,1.339-7.581,6.305-6.242,11.092
	c1.34,4.787,6.303,7.586,11.092,6.242c19.757-5.526,36.938-19.669,47.57-39.035c21.707,9.067,37.002,30.52,37.002,55.476
	c0,25.728-16.18,48.279-40.001,56.676c-2.832-2.39-6.49-3.806-10.478-3.806h-19.217c-8.971,0-16.27,7.029-16.27,15.999
	c0,8.971,7.299,16.001,16.27,16.001h19.217c7.276,0,13.453-4.56,15.525-11.162c23.192-7.843,41.17-25.811,48.914-48.295
	c10.452-2.538,17.272-8.893,17.272-16.874V87.561c0-8.282-7.325-14.942-18.467-17.265c-11.454-28.912-39.805-49.414-72.744-49.414
	c-14.396,0-28.521,3.951-40.746,11.428c-4.24,2.593-5.604,8.133-3.01,12.373C225.318,48.924,230.828,50.258,235.072,47.666z
	 M53.504,125.072c2.606,0.43,5.132-0.304,7.151-2.014c2.017-1.71,3.038-4.221,3.038-6.865V98.969
	c0-33.132,27.081-60.087,60.213-60.087c1.609,0,3.27,0.063,4.848,0.188c-8.342,12.948-20.435,22.306-34.085,26.124
	c-4.786,1.339-7.565,6.305-6.226,11.091c1.34,4.787,6.319,7.587,11.099,6.243c19.756-5.525,36.94-19.668,47.574-39.035
	c21.707,9.067,37.002,30.52,37.002,55.476c0,25.728-16.178,48.28-39.998,56.676c-2.832-2.39-6.488-3.806-10.477-3.806h-19.217
	c-8.971,0-16.269,7.029-16.269,15.999c0,8.971,7.298,16.001,16.269,16.001h19.217c7.276,0,13.452-4.56,15.525-11.162
	c23.194-7.841,40.837-25.808,48.581-48.295c10.454-2.537,16.944-8.892,16.944-16.874V87.561c0-8.282-6.995-14.943-18.139-17.265
	c-11.454-28.913-39.638-49.414-72.578-49.414c-32.981,0-61.195,20.557-72.62,49.527c-10.839,2.42-17.663,9.001-17.663,17.151v19.948
	C33.693,116.178,41.45,123.072,53.504,125.072z M116.125,104.84c0-4.971-4.029-9-9-9H97.124c-4.971,0-9,4.029-9,9s4.029,9,9,9
	h10.001C112.096,113.84,116.125,109.81,116.125,104.84z M248.238,358.818l-26.427-108.645
	c-5.912-24.334-34.518-43.334-65.121-43.334h-1.237c-3.845,0-7.265,2.38-8.513,6.017c-2.119,6.173-10.585,12.391-22.667,12.391
	c-12.08,0-20.545-6.203-22.664-12.376c-1.248-3.637-4.668-6.032-8.513-6.032h-1.238c-30.601,0-59.204,19-65.119,43.333
	L0.309,358.851c-0.116,0.435-0.201,0.866-0.252,1.323c-0.129,1.14-0.036,2.258,0.25,3.32c0.242,0.907,0.623,1.755,1.118,2.526
	c1.063,1.658,2.668,2.97,4.639,3.647c0,0.001,0,0,0,0c0.005,0.001,0.009,0.002,0.014,0.003c0.311,0.107,0.629,0.038,0.954,0.11
	c0.755,0.17,1.503,0.057,2.247,0.057h54.022c4.971,0,9-4.029,9-9s-4.029-9-9-9H20.453l23.775-97.636
	c3.652-15.023,22.955-27.789,43.356-29.397c6.951,11.05,21.069,18.37,36.688,18.37c15.619,0,29.739-7.26,36.69-18.31
	c20.403,1.608,39.707,14.304,43.357,29.327l23.774,97.646h-42.849c-4.971,0-9,4.029-9,9s4.029,9,9,9h54.022
	c0.089,0,0.179,0.163,0.27,0.163c0.662,0,1.336,0.005,2.009-0.148c0.305-0.069,0.603-0.114,0.895-0.213
	c1.988-0.673,3.608-1.973,4.679-3.641c0.496-0.771,0.878-1.615,1.12-2.523c0.285-1.061,0.379-2.18,0.25-3.317
	C248.441,359.7,248.356,359.256,248.238,358.818z M390.828,360.165c-0.05-0.46-0.135-0.909-0.253-1.347l-26.427-108.645
	c-5.914-24.334-34.519-43.334-65.121-43.334h-1.237c-3.845,0-7.265,2.38-8.513,6.017c-2.119,6.173-10.586,12.391-22.668,12.391
	c-12.08,0-20.545-6.264-22.664-12.437c-1.614-4.702-6.737-7.21-11.435-5.599c-4.701,1.614-7.204,6.73-5.591,11.431
	c4.968,14.472,21.288,24.576,39.689,24.576c15.62,0,29.74-7.281,36.691-18.331c20.403,1.608,39.706,14.293,43.357,29.317
	l23.774,97.635h-42.848c-4.971,0-9,4.029-9,9s4.029,9,9,9h54.021c0.089,0,0.179,0.163,0.27,0.163c0.662,0,1.336,0.006,2.009-0.148
	c0.305-0.069,0.603-0.114,0.895-0.213c1.988-0.673,3.608-1.973,4.679-3.641c0.496-0.771,0.878-1.615,1.12-2.523
	C390.864,362.417,390.957,361.302,390.828,360.165z M141.422,113.84h9.999c4.971,0,9-4.029,9-9s-4.029-9-9-9h-9.999
	c-4.971,0-9,4.029-9,9S136.451,113.84,141.422,113.84z"/>
<g>
</g>
<g>
</g>
<g>
</g>
<g>
</g>
<g>
</g>
<g>
</g>
<g>
</g>
<g>
</g>
<g>
</g>
<g>
</g>
<g>
</g>
<g>
</g>
<g>
</g>
<g>
</g>
<g>
</g>
</svg>
